<svg width="101" height="91" viewBox="0 0 101 91" fill="none" xmlns="http://www.w3.org/2000/svg">
<g clip-path="url(#clip0)">
<path d="M24.5253 87.667H22.925V83.8914H18.5285V87.667H16.9282V79.0732H18.5285V82.6019H22.925V79.0732H24.5253V87.667Z" fill="#C0D12E"/>
<path d="M30.8202 87.6671L30.7106 86.8459H30.6557C30.3802 87.1582 30.0273 87.4027 29.6277 87.558C29.2148 87.7314 28.7678 87.822 28.3153 87.8243C28.0643 87.8362 27.8135 87.8003 27.5778 87.7187C27.3422 87.637 27.1267 87.5114 26.9446 87.3495C26.7749 87.1823 26.6431 86.9847 26.5571 86.7686C26.4711 86.5525 26.4327 86.3224 26.4443 86.092C26.4368 85.7571 26.5205 85.4259 26.6876 85.1297C26.8512 84.8431 27.0863 84.5977 27.3729 84.4143C27.7084 84.2073 28.0793 84.0554 28.4695 83.9652C28.9391 83.8567 29.4215 83.8039 29.9053 83.808H30.5015V83.6156C30.5142 83.4747 30.4895 83.3331 30.4297 83.2033C30.37 83.0735 30.2769 82.9595 30.1589 82.8714C29.8157 82.6915 29.4237 82.61 29.0315 82.6372C28.3914 82.6334 27.7616 82.7872 27.205 83.0831L26.9137 82.002C27.6004 81.6416 28.3781 81.461 29.1651 81.4792C30.0926 81.4792 30.7974 81.6567 31.2794 82.0117C31.5098 82.1865 31.6978 82.4052 31.8311 82.6532C31.9824 82.9447 32.0564 83.266 32.047 83.5899V87.6671H30.8202ZM28.9149 86.663C29.2243 86.6614 29.5291 86.5934 29.8059 86.4641C30.0869 86.3416 30.3307 86.1552 30.5152 85.922V84.7383H30.2514C29.682 84.7027 29.1119 84.7963 28.5894 85.011C28.4223 85.0943 28.2844 85.2209 28.192 85.3756C28.0997 85.5303 28.0568 85.7066 28.0685 85.8835C28.0528 85.9905 28.0639 86.0994 28.1011 86.2016C28.1383 86.3038 28.2004 86.3965 28.2827 86.4722C28.3649 86.5479 28.4649 86.6046 28.5746 86.6377C28.6844 86.6709 28.801 86.6795 28.9149 86.663Z" fill="#C0D12E"/>
<path d="M38.8354 83.16C38.7134 83.0813 38.5851 83.0116 38.4516 82.9515C38.2918 82.8809 38.1269 82.8209 37.9581 82.7718C37.7788 82.7181 37.5955 82.6763 37.4099 82.6467C37.2321 82.6184 37.0522 82.6034 36.8719 82.6018C36.5954 82.5938 36.3211 82.65 36.0734 82.7654C35.8623 82.8657 35.681 83.0133 35.5457 83.1953C35.4055 83.3806 35.3054 83.5898 35.251 83.8112C35.1914 84.0509 35.1615 84.2964 35.1619 84.5425C35.1598 84.8219 35.1978 85.1003 35.275 85.3702C35.3446 85.6114 35.4607 85.8386 35.6177 86.0406C35.7653 86.2307 35.9576 86.3865 36.1797 86.4961C36.4238 86.6113 36.6945 86.6686 36.9678 86.6629C37.3307 86.6584 37.69 86.5955 38.0301 86.4769C38.3799 86.3652 38.7 86.1848 38.969 85.9476L39.25 87.173C38.9157 87.3612 38.5577 87.5099 38.1843 87.6157C37.7195 87.7564 37.2336 87.8268 36.7451 87.8242C36.2599 87.8344 35.7782 87.7457 35.3333 87.5643C34.9478 87.403 34.6051 87.1642 34.3292 86.865C34.0607 86.5674 33.8581 86.2229 33.733 85.8513C33.5971 85.4532 33.5289 85.0375 33.5308 84.6195C33.528 84.2161 33.5916 83.8147 33.7193 83.4294C33.8388 83.0599 34.0396 82.7179 34.3087 82.4254C34.5914 82.1258 34.9428 81.8901 35.3367 81.7357C35.8133 81.5564 36.3241 81.4701 36.8376 81.4823C37.2783 81.4823 37.7175 81.5297 38.1466 81.6234C38.5092 81.6957 38.8566 81.8236 39.1746 82.0019L38.8354 83.16Z" fill="#C0D12E"/>
<path d="M43.787 83.7855L46.5284 87.667H44.8596L42.7864 84.7254L42.2415 85.2322V87.667H40.7132V78.0435H42.2415V83.6027L44.373 81.6779H46.0863L43.787 83.7855Z" fill="#C0D12E"/>
<path d="M51.4012 87.6671L51.2881 86.8459H51.2332C50.9581 87.1586 50.6051 87.4031 50.2052 87.558C49.7911 87.7314 49.343 87.8221 48.8893 87.8243C48.6385 87.8356 48.3878 87.7995 48.1522 87.7179C47.9167 87.6363 47.7012 87.511 47.5186 87.3495C47.3496 87.1819 47.2183 86.9842 47.1323 86.7682C47.0464 86.5522 47.0076 86.3223 47.0183 86.092C47.0125 85.7573 47.0961 85.4265 47.2616 85.1297C47.4312 84.842 47.6721 84.5966 47.9641 84.4143C48.3006 84.2067 48.6727 84.0548 49.0641 83.9652C49.5326 83.8567 50.0139 83.8039 50.4965 83.808H51.0962V83.6156C51.1094 83.4747 51.0851 83.3329 51.0252 83.2029C50.9654 83.073 50.872 82.9591 50.7535 82.8713C50.4105 82.6911 50.0183 82.6096 49.6261 82.6372C48.9842 82.6273 48.3508 82.7756 47.7894 83.067L47.4981 81.986C48.1876 81.631 48.9664 81.456 49.7529 81.4791C50.6781 81.4791 51.3829 81.6566 51.8672 82.0116C52.0965 82.1867 52.2834 82.4054 52.4155 82.6532C52.5667 82.9447 52.6408 83.266 52.6314 83.5899V87.6671H51.4012ZM49.4959 86.663C49.8041 86.6614 50.1078 86.5933 50.3834 86.4641C50.6648 86.3408 50.9096 86.1546 51.0962 85.922V84.7383H50.8289C50.2596 84.7031 49.6895 84.7966 49.1669 85.011C49.0001 85.0946 48.8624 85.2213 48.7701 85.3759C48.6778 85.5305 48.6348 85.7067 48.6461 85.8835C48.631 85.9903 48.6427 86.099 48.6801 86.2009C48.7175 86.3028 48.7797 86.3951 48.8618 86.4707C48.9438 86.5463 49.0435 86.603 49.1529 86.6363C49.2624 86.6697 49.3786 86.6788 49.4925 86.663H49.4959Z" fill="#595393"/>
<path d="M57.0177 87.8242C56.6042 87.8285 56.1951 87.744 55.8218 87.5772C55.4654 87.416 55.1499 87.1852 54.8966 86.9004C54.6327 86.5991 54.4316 86.2542 54.3037 85.8835C54.1612 85.469 54.0906 85.0358 54.0947 84.6004C54.0932 84.2022 54.152 83.8058 54.2695 83.4231C54.3767 83.0611 54.5582 82.7223 54.8041 82.4254C55.0478 82.1386 55.3538 81.9036 55.7019 81.7358C56.0983 81.5544 56.5356 81.4652 56.9766 81.4759C57.3863 81.4686 57.7932 81.5395 58.1726 81.6844C58.5039 81.8087 58.7963 82.0096 59.0224 82.2682V78.0307H60.537V87.6542H59.3137L59.2006 86.833H59.1458C58.8877 87.1012 58.5899 87.3334 58.2617 87.5227C57.8858 87.7313 57.4545 87.8359 57.0177 87.8242ZM57.2131 86.7432C57.3726 86.7417 57.5314 86.7223 57.686 86.6854C58.0307 86.6035 58.3561 86.462 58.6454 86.2684C58.7898 86.1722 58.917 86.0553 59.0224 85.922V83.4231C58.7998 83.143 58.5082 82.9174 58.1726 82.7655C57.9102 82.6523 57.6253 82.5922 57.3364 82.589C57.071 82.5823 56.8081 82.6386 56.5723 82.7526C56.3583 82.8603 56.175 83.0142 56.0377 83.2017C55.8891 83.4011 55.78 83.6238 55.7156 83.8593C55.6462 84.1119 55.6117 84.3717 55.6128 84.6324C55.6123 84.8938 55.6445 85.1543 55.7087 85.4087C55.7668 85.6479 55.8664 85.8765 56.0034 86.0856C56.1282 86.2783 56.2996 86.4409 56.5037 86.5603C56.7199 86.6873 56.9717 86.751 57.2268 86.7432H57.2131Z" fill="#595393"/>
<path d="M65.3652 81.4791C66.0515 81.4379 66.7285 81.6445 67.2568 82.0565C67.4861 82.269 67.6642 82.5249 67.7795 82.807C67.8947 83.0891 67.9443 83.391 67.925 83.6925C67.9246 83.7944 67.9177 83.8961 67.9045 83.9973C67.9045 84.1063 67.8702 84.2122 67.8496 84.318C67.8286 84.413 67.8 84.5062 67.764 84.5971C67.7379 84.6679 67.7034 84.7357 67.6612 84.7992H63.6107C63.629 85.0492 63.6808 85.296 63.7649 85.5338C63.841 85.7549 63.9646 85.959 64.1282 86.1337C64.2873 86.305 64.4836 86.4428 64.7039 86.5379C64.9549 86.6426 65.2275 86.6941 65.5023 86.6886C65.8749 86.6842 66.2442 86.6224 66.5954 86.5058C66.9448 86.4011 67.2752 86.2475 67.5755 86.0503L67.8256 87.1185C67.7057 87.1858 67.5584 87.2628 67.3836 87.3462C67.1888 87.4335 66.9886 87.5096 66.7839 87.574C66.5493 87.6457 66.3101 87.7036 66.0677 87.7472C65.8037 87.7967 65.5351 87.8214 65.2659 87.821C64.795 87.8281 64.3278 87.7417 63.8952 87.5676C63.5105 87.408 63.1677 87.1715 62.8911 86.8747C62.6192 86.5796 62.4119 86.2374 62.2812 85.8674C61.9978 85.0841 61.9978 84.2352 62.2812 83.4519C62.4203 83.0797 62.6356 82.7365 62.9151 82.4415C63.1998 82.1424 63.5506 81.9049 63.9431 81.7454C64.3919 81.5639 64.8765 81.4731 65.3652 81.4791ZM65.3241 82.5986C64.9614 82.5903 64.6075 82.7041 64.3269 82.9194C64.0451 83.1487 63.8403 83.4495 63.7375 83.7855H66.3933C66.4044 83.7566 66.4113 83.7264 66.4138 83.6957C66.4178 83.652 66.4178 83.608 66.4138 83.5642C66.4179 83.4356 66.3928 83.3076 66.3402 83.1888C66.2877 83.0699 66.2088 82.9628 66.1088 82.8745C65.8961 82.6901 65.6139 82.592 65.3241 82.6018V82.5986Z" fill="#595393"/>
<path d="M73.6271 87.6671V83.7246C73.6271 83.0125 73.3256 82.6564 72.7225 82.6564C72.5593 82.6588 72.3975 82.6848 72.2427 82.7334C72.0665 82.7896 71.8985 82.8661 71.7424 82.9612C71.5773 83.0666 71.4276 83.1917 71.2969 83.3333C71.1632 83.4804 71.0661 83.6535 71.0125 83.8401V87.6895H69.4842V81.678H70.6801L70.7487 82.5634H70.8035C70.9842 82.2013 71.298 81.9121 71.6876 81.7486C72.0941 81.5673 72.5395 81.4751 72.9898 81.4792C73.4004 81.475 73.8067 81.5572 74.1788 81.7197C74.5469 81.8915 74.8321 82.1871 74.9773 82.5474C75.1599 82.1918 75.4705 81.9079 75.8545 81.7454C76.5185 81.4563 77.2714 81.4005 77.9757 81.5882C78.2416 81.6588 78.486 81.7871 78.689 81.9626C78.892 82.1382 79.048 82.3561 79.1442 82.5987C79.2692 82.9146 79.3285 83.2499 79.319 83.5867V87.6638H77.7872V83.7246C77.7872 83.0125 77.4856 82.6564 76.8825 82.6564C76.7193 82.6588 76.5575 82.6848 76.4028 82.7334C76.2263 82.789 76.0581 82.8655 75.9025 82.9612C75.7367 83.0657 75.5868 83.1909 75.457 83.3333C75.3233 83.4804 75.2262 83.6535 75.1726 83.8401V87.6895L73.6271 87.6671Z" fill="#595393"/>
<path d="M83.7978 85.9348L85.5797 81.678H87.0395L84.3975 87.7184C84.2429 88.0704 84.0631 88.4122 83.8595 88.7417C83.6317 89.1231 83.3618 89.4811 83.0542 89.8099C82.7492 90.1384 82.3948 90.4237 82.0022 90.6567C81.6254 90.8839 81.1859 91.0032 80.7377 91C80.6818 91.004 80.6257 91.004 80.5698 91C80.527 90.996 80.4853 90.9852 80.4464 90.9679L80.1826 89.8484L80.2785 89.874C80.3571 89.8815 80.4364 89.8815 80.515 89.874C80.6901 89.8746 80.8647 89.8574 81.0358 89.8227C81.2214 89.7831 81.3979 89.7124 81.5567 89.6142C81.909 89.3997 82.2063 89.1149 82.4271 88.7802C82.7084 88.3632 82.9481 87.923 83.1433 87.4649L79.9598 81.6716H81.5567L83.7978 85.9348Z" fill="#595393"/>
<path d="M19.7141 7.26255V14.4962H27.2941V21.592H12.1307V29.2427C12.1285 30.655 11.7551 32.0451 11.0433 33.2904C10.3316 34.5357 9.30336 35.5979 8.04943 36.3833C8.04943 36.3833 11.7263 37.5638 12.1033 42.3435H12.1307V42.2248H19.7107V57.3594H12.1307V63.9483H19.7107V71.4193H12.1307C9.36873 71.4193 7.56969 70.3864 6.4183 69.1995C5.14013 67.8624 4.44007 66.1275 4.45477 64.3332V42.7156C4.45477 42.7156 4.01958 39.4244 0 39.851V32.6301C0 32.6301 4.45477 33.1915 4.45477 29.2427V7.24972C4.44178 5.45769 5.14172 3.72529 6.4183 2.38984C7.56969 1.20294 9.36873 0.166809 12.1273 0.166809H27.2941V7.26255H19.7141Z" fill="#C0D12E"/>
<path d="M27.294 28.9476H19.7106V42.2184H27.294V28.9476Z" fill="#C0D12E"/>
<path d="M27.294 57.353H19.7106V64.1279H27.294V57.353Z" fill="#C0D12E"/>
<path d="M34.8775 7.3299H27.2941V14.4288H34.8775V7.3299Z" fill="#C0D12E"/>
<path d="M65.2075 14.4963H57.6241V21.5952H65.2075V14.4963Z" fill="#595393"/>
<path d="M65.2075 35.7738H57.6241V42.8728H65.2075V35.7738Z" fill="#595393"/>
<path d="M72.7877 0.166809H65.2043V7.26576H72.7877V0.166809Z" fill="#595393"/>
<path d="M72.7877 21.592H65.2043V28.6909H72.7877V21.592Z" fill="#595393"/>
<path d="M72.7877 49.8979H65.2043V56.9969H72.7877V49.8979Z" fill="#595393"/>
<path d="M65.3584 57.0514H57.775V64.0734H65.3584V57.0514Z" fill="#595393"/>
<path d="M42.461 35.1194H34.8776V42.2184H42.461V35.1194Z" fill="#C0D12E"/>
<path d="M57.7751 49.9525V57.0515H34.8776V49.9525H42.4575V42.3853H50.0409V49.9525H57.7751Z" fill="#C0D12E"/>
<path d="M57.7784 64.1279H41.9536V71.5573H57.7784V64.1279Z" fill="#C0D12E"/>
<path d="M57.7784 0H41.9536V7.42936H57.7784V0Z" fill="#595393"/>
<path d="M34.8775 21.592H27.2941V28.6909H34.8775V21.592Z" fill="#C0D12E"/>
<path d="M50.0408 14.4963H42.4575V21.5952H50.0408V14.4963Z" fill="#C0D12E"/>
<path d="M57.6243 21.592H50.0409V28.6909H57.6243V21.592Z" fill="#595393"/>
<path d="M34.8775 42.2183H27.2941V49.3173H34.8775V42.2183Z" fill="#C0D12E"/>
<path d="M34.8775 64.1279H27.2941V71.4129H34.8775V64.1279Z" fill="#C0D12E"/>
<path d="M80.0282 35.7161H72.7875V42.9305H80.0282V35.7161Z" fill="#595393"/>
<path d="M96.5111 28.8257V7.11178C96.5237 5.31906 95.8266 3.58546 94.5544 2.24549C93.427 1.07463 91.6896 0.060949 89.0407 0H80.2443V7.26255H72.7877V14.477H88.8146V21.5342H80.1209V28.7487H88.8146V29.1913H88.842C89.2224 33.9871 92.9164 35.1708 92.9164 35.1708C91.6556 35.9594 90.6211 37.026 89.9041 38.2767C89.187 39.5275 88.8093 40.924 88.8043 42.3435V42.9177H80.0318V57.353H72.9898V64.1279H65.3756V71.5605H88.8146C91.5902 71.5605 93.3927 70.5179 94.5544 69.315C95.831 67.9724 96.5284 66.2332 96.5111 64.4359V42.3435C96.5111 38.3754 101 38.94 101 38.94V31.6999C96.9531 32.1297 96.5111 28.8257 96.5111 28.8257ZM88.8146 64.1279H80.419V57.353H88.8146V64.1279Z" fill="#595393"/>
</g>
<defs>
<clipPath id="clip0">
<rect width="101" height="91" fill="white"/>
</clipPath>
</defs>
</svg>
